# xmcd
#
# Track frame offsets:
# 150
# 22493
# 36751
# 53100
# 73499
# 83502
# 94088
# 108329
# 113617
# 127739
# 166528
#
# Disc length: 2861 seconds
#
#
# Revision: 0
# Processed by: cddbd v1.5.2PL0 Copyright (c) Steve Scherf et al.
# Submitted via: FreeRIP 2.96 
#
DISCID=860b2b0b
DTITLE=tim hecker - mirages
DYEAR=1900
DGENRE=Ambient
TTITLE0=acéphale
TTITLE1=neither more or less
TTITLE2=aerial silver
TTITLE3=celestina
TTITLE4=counter attack
TTITLE5=the truth of accountants
TTITLE6=aerial light-pollution orange
TTITLE7=non mollare
TTITLE8=kaito
TTITLE9=balkanize-you
TTITLE10=incurably optimistic!
EXTD=
EXTT0=
EXTT1=
EXTT2=
EXTT3=
EXTT4=
EXTT5=
EXTT6=
EXTT7=
EXTT8=
EXTT9=
EXTT10=
PLAYORDER=
